<svg id="Camada_1" data-name="Camada 1" xmlns="http://www.w3.org/2000/svg" xmlns:xlink="http://www.w3.org/1999/xlink" viewBox="0 0 512 205.97"><defs><style>.cls-1{fill:url(#Gradiente_sem_nome_6);}.cls-2{fill:url(#Gradiente_sem_nome_6-2);}.cls-3{fill:url(#Gradiente_sem_nome_6-3);}.cls-4{fill:url(#Gradiente_sem_nome_6-4);}.cls-5{fill:url(#Gradiente_sem_nome_6-5);}.cls-6{fill:url(#Gradiente_sem_nome_6-6);}.cls-7{fill:url(#Gradiente_sem_nome_6-7);}.cls-8{fill:url(#Gradiente_sem_nome_6-8);}.cls-9{fill:url(#Gradiente_sem_nome_6-9);}.cls-10{fill:url(#Gradiente_sem_nome_6-10);}.cls-11{fill:url(#Gradiente_sem_nome_6-11);}.cls-12{fill:url(#Gradiente_sem_nome_6-12);}</style><linearGradient id="Gradiente_sem_nome_6" x1="1" y1="92.5" x2="502.47" y2="57.09" gradientUnits="userSpaceOnUse"><stop offset="0" stop-color="#fd632b"/><stop offset="1" stop-color="#ff2f86"/></linearGradient><linearGradient id="Gradiente_sem_nome_6-2" x1="1.48" y1="99.37" x2="502.95" y2="63.96" xlink:href="#Gradiente_sem_nome_6"/><linearGradient id="Gradiente_sem_nome_6-3" x1="1.85" y1="104.53" x2="503.31" y2="69.12" xlink:href="#Gradiente_sem_nome_6"/><linearGradient id="Gradiente_sem_nome_6-4" x1="2.66" y1="116.05" x2="504.13" y2="80.64" xlink:href="#Gradiente_sem_nome_6"/><linearGradient id="Gradiente_sem_nome_6-5" x1="2.4" y1="112.43" x2="503.87" y2="77.02" xlink:href="#Gradiente_sem_nome_6"/><linearGradient id="Gradiente_sem_nome_6-6" x1="4.38" y1="140.45" x2="505.85" y2="105.04" xlink:href="#Gradiente_sem_nome_6"/><linearGradient id="Gradiente_sem_nome_6-7" x1="1.98" y1="106.4" x2="503.45" y2="70.99" xlink:href="#Gradiente_sem_nome_6"/><linearGradient id="Gradiente_sem_nome_6-8" x1="3" y1="120.87" x2="504.47" y2="85.46" xlink:href="#Gradiente_sem_nome_6"/><linearGradient id="Gradiente_sem_nome_6-9" x1="0.04" y1="78.96" x2="501.51" y2="43.55" xlink:href="#Gradiente_sem_nome_6"/><linearGradient id="Gradiente_sem_nome_6-10" x1="3.29" y1="125.01" x2="504.76" y2="89.6" xlink:href="#Gradiente_sem_nome_6"/><linearGradient id="Gradiente_sem_nome_6-11" x1="6.36" y1="168.47" x2="507.83" y2="133.06" xlink:href="#Gradiente_sem_nome_6"/><linearGradient id="Gradiente_sem_nome_6-12" x1="4.88" y1="147.5" x2="506.35" y2="112.09" xlink:href="#Gradiente_sem_nome_6"/></defs><title>H Zhawtys</title><path class="cls-1" d="M134.79,30.62a10.32,10.32,0,0,0-2.45-4.2,12.3,12.3,0,0,0-3.25-2.35A25.18,25.18,0,0,0,126.64,23c-1.44-.29-2.81-.56-4.11-.78s-2.61-.56-3.88-.86c-4.09-.88-7.86-1.46-10.91-2s-5.77-1-8-1.37a32.26,32.26,0,0,0-6.55-.39,83.12,83.12,0,0,0-10.3-.15,91.83,91.83,0,0,0-10.44,1,29.76,29.76,0,0,0-8.61,2.54,8.34,8.34,0,0,0-4.6,4.87,60.16,60.16,0,0,0-1.71,6.77,48.8,48.8,0,0,0-.83,7.46c-.08,2.47,0,4.92.12,7.26a28.36,28.36,0,0,0,1,6,10.63,10.63,0,0,0,5,5.75c2.5,1.47,5.06,2.52,6.9,3.4a8.13,8.13,0,0,0,1.83.49,1.66,1.66,0,0,0,1.81-1,2,2,0,0,0-.61-2.44c-.88-.86-1.42-1.42-1.56-1.54a21.51,21.51,0,0,1-3.4-3.87A12.2,12.2,0,0,1,66,48.53c-.14-1.79.59-3.67,2.21-5.68a22.48,22.48,0,0,1,7-5.38,42.37,42.37,0,0,1,11.4-3.72,70.24,70.24,0,0,1,15.53-.63c.32,0,1.57.1,3.77.19s8.83.49,9.07.88a11,11,0,0,1-1.07,2.45c-.4.81-.89,1.61-1.35,2.42-8,13.79-17.46,27.07-28.61,38.37C81.06,80.37,77.14,84,72.2,88.22S62,96.8,56.45,101.23,45.25,110,39.6,114.17s-11.25,7.63-15.28,10.61a7,7,0,0,0-1,.93,3.59,3.59,0,0,0-.71,1.74v3.62a23.84,23.84,0,0,0,.46,4.57,17.6,17.6,0,0,0,1.72,4.6,7.8,7.8,0,0,0,3.64,3.54c5.55,2.33,12.64,3.8,19,5.34s11.34,2.66,14.92,3.42c11.47,2.32,20.73,3.18,27.75,2.86a111.78,111.78,0,0,0,13.94-1.22,57.83,57.83,0,0,0,8.25-2.59,26.58,26.58,0,0,0,6.06-3.16,10.11,10.11,0,0,0,2.18-2.32,13.18,13.18,0,0,0,1.46-2.55,14.21,14.21,0,0,0,1-2.93c.3-1.42.64-3.3,1-5.58s.51-4.67.73-7a15.68,15.68,0,0,0,0-3.88,24.86,24.86,0,0,0-.49-2.91c-.22-.76-.49-1.74-.73-2.43-.61-1.76-2.42-4.37-4.36-7.36a48.43,48.43,0,0,0-6.79-8.26,29.09,29.09,0,0,0-7.88-5.65,7.43,7.43,0,0,0-7.63.46,21.39,21.39,0,0,0-3.15,2.57A27.26,27.26,0,0,0,91,103.65,13.17,13.17,0,0,0,88.83,108v.24a.58.58,0,0,0-.12.68,1.09,1.09,0,0,0,.59.76,1.53,1.53,0,0,0,1.59.08,1.76,1.76,0,0,1,1.81,0q2.89,1.53,7.41,4a60.59,60.59,0,0,1,8.48,5.45,43.46,43.46,0,0,1,6.9,6.58,11.16,11.16,0,0,1,2.91,7.14c0,2.28-1.81,4.16-5.45,5.58s-8.54,2.3-14.68,2.47q-2.89.18-8.73,0t-13.33-1.1q-7.51-.89-16-2.4c-5.68-1-17.22-4.21-17.22-4.21-.15-.9,14.89-11.34,23.38-18.49S83.23,100,91.38,92,107.1,75.94,114.05,67.8s12.2-17.32,16.48-23a3.37,3.37,0,0,0,.49-1c.49-1.59,2.5-4.28,3.4-6.85A10,10,0,0,0,134.79,30.62Z"/><path class="cls-2" d="M178.94,98.55q-2.06,10.42-2.79,17.5c-.24,2.29-.44,4.45-.52,6.49a42,42,0,0,0-2.88,4.14,43.72,43.72,0,0,0-2.28,4.26,26.94,26.94,0,0,0-1.15,2.85,30.65,30.65,0,0,1-3.1-1.46c-3.56-1.9-5.65-4.54-6.31-7.7-1.06-5.07-1-11.4.24-18.8s2.81-14.48,4.6-21.19a76.33,76.33,0,0,0-10.05,16.07q-4.24,9-7.17,17.26c-1.93,5.46-3.39,10.17-4.35,14.07s-1.54,6.11-1.71,6.58c0,.81-.32,1.23-1,1.25-1.15-.29-2.84-.62-5.11-1a23,23,0,0,1-7-2.42.92.92,0,0,1-.73-.94V135q-1-8,1-20.63t5-26q3-13.38,6.19-25.36t5.09-18.34c.49-1.62.56-2.64.24-3a1.8,1.8,0,0,1,0-1.81,1.35,1.35,0,0,1,1.47-1,1.64,1.64,0,0,1,.71.1.87.87,0,0,0,.49.1.66.66,0,0,1,.49.23c1.44.44,3.48,1.17,6.06,2.2a27.1,27.1,0,0,1,7,4.08,1.37,1.37,0,0,1,.73.67,4.84,4.84,0,0,1,.25,2.66c-.49,1.66-1.25,4.31-2.3,8s-2.27,7.93-3.64,12.75-2.83,10-4.36,15.46-3,10.75-4.25,15.78a121.77,121.77,0,0,1,11.64-20.09q6-8.27,9.46-12.34l.25-.23a10.38,10.38,0,0,0,1.2-1.53,3.56,3.56,0,0,1,2.42-1.11,5.27,5.27,0,0,1,1.47.17c1.44.58,3.19,1.28,5.2,2.12a26.43,26.43,0,0,1,5.7,3.3c.17.16.46.46.86.92a2.67,2.67,0,0,1,.12,2.42l-.24.26V75A156.19,156.19,0,0,0,178.94,98.55Z"/><path class="cls-3" d="M233.87,68.75v.73a1.53,1.53,0,0,1-.74.53l-.49,0a28.4,28.4,0,0,0-5.21,1,12.58,12.58,0,0,0-5.7,3.73,38.57,38.57,0,0,0-6.53,10.47,83.45,83.45,0,0,0-4.74,13.81,82.55,82.55,0,0,0-2.3,14.6c0,.71-.07,1.42-.1,2.11-.17-.18-.31-.37-.49-.53a13.49,13.49,0,0,0-6.11-3.81,16.51,16.51,0,0,0-5.77-.64,23.42,23.42,0,0,0-5,.79c.15-2,.39-4,.71-6.21a110.37,110.37,0,0,1,3-13.77,82.61,82.61,0,0,1,5-13.21,40.33,40.33,0,0,1,6.68-10,14.18,14.18,0,0,1,8.61-4.66,21.52,21.52,0,0,1,6.31,0,37.5,37.5,0,0,1,6,1.2,19.18,19.18,0,0,1,6.55,3.36A.6.6,0,0,0,233.87,68.75Z"/><path class="cls-4" d="M246.48,82.49a189.4,189.4,0,0,0-4.86,19.93c-1,5.47-1.62,10.11-1.93,13.85-.25,2-.37,3.9-.42,5.62l-1.17.34c-.3.09-.59.17-.88.27a2.94,2.94,0,0,0-.4-.39l-.24-.22-.24-.2a22.14,22.14,0,0,0-5.73-3c-.85-.31-1.69-.6-2.44-.83l-1-1-3.26.26-.73,0-.17,0v-.49c0-1.76.07-3.55.24-5.35-.76,2.09-1.51,4.2-2.2,6.29a8.78,8.78,0,0,0-5.45,5.83,9.25,9.25,0,0,0-.37,3.67l-.12.47-.08.28c-.66.1-1.29.17-1.93.24a25.48,25.48,0,0,0-1.34-5.81c1.22-2,2.48-4.3,3.71-6.72,2-3.84,4.14-8.63,6.56-14.33A184.69,184.69,0,0,0,229,81c.32-1.49.63-2.78,1-3.85s.56-2,.73-2.84a3.1,3.1,0,0,0,.49-.78,1.8,1.8,0,0,1,1.69-.62c4.52.92,7.73,2,9.58,3.21a14.56,14.56,0,0,1,3.77,3.21,1.84,1.84,0,0,0,.24.93,3.08,3.08,0,0,0,.13,1A2.56,2.56,0,0,1,246.48,82.49Z"/><path class="cls-5" d="M301.61,118.74a19.17,19.17,0,0,0-1.86-.78c-1.22-.46-2.3-.78-3.2-1a9.92,9.92,0,0,0-4.11-.64,8.86,8.86,0,0,0-5.87,2.92,9.06,9.06,0,0,1-1.05-2.85,10.15,10.15,0,0,0-.12-1.46,10.25,10.25,0,0,1-.13-1.68,93.94,93.94,0,0,1-4.84,9.37,34.79,34.79,0,0,1-3.89,5.41,10,10,0,0,1-3.4,3c-.24-.06-.49-.08-.73-.14a10.84,10.84,0,0,0-.17-1.87,13.46,13.46,0,0,0-9.3-10.49,18.56,18.56,0,0,0-7.6-.78,35,35,0,0,0-6.48,1.23,8.44,8.44,0,0,0,.54-.75A53,53,0,0,0,255,107.24c.48-1.34.88-2.77,1.25-4.19,0-1.64.07-3.21.19-4.79a129.74,129.74,0,0,1,2.43-17.66,87.15,87.15,0,0,1,3.88-13.32c1.45-3.66,2.6-6.26,3.4-7.79a4.48,4.48,0,0,1,.71-1,8.17,8.17,0,0,1,2.45-1.89,10,10,0,0,1,5.7-.72,26.07,26.07,0,0,1,5.21,1.5,11.07,11.07,0,0,1,4.1,2.58,21.16,21.16,0,0,1,2.21,2.73,1.08,1.08,0,0,1-.25,1.49,1,1,0,0,1-1,.08,1.88,1.88,0,0,0-1.22.58l-.24.27a58.74,58.74,0,0,0-7.76,17.85,135.57,135.57,0,0,0-3.4,18.21,127.93,127.93,0,0,0-.46,19.92c1.93-.79,3.88-3.26,5.82-7.38a138.39,138.39,0,0,0,5.58-13.9c1.76-5.15,3.38-10.36,4.84-15.56s2.61-9.39,3.4-12.52c.49-2,.95-3.79,1.44-5.45s.88-3.15,1.22-4.47v-.22a12.43,12.43,0,0,1,1-3.23,2.84,2.84,0,0,0,.49-.77c.17-.5.73-.79,1.71-.87,1.29.39,3.23,1,5.82,1.86a20.22,20.22,0,0,1,6.77,3.75,2.37,2.37,0,0,1,1,1,2.87,2.87,0,0,1,0,2.32.77.77,0,0,1-.24.51c-1.93,6.77-3.52,13.23-4.72,19.37s-2.19,11.7-2.91,16.58-1.23,9-1.47,12.36C301.76,116.16,301.66,117.59,301.61,118.74Z"/><path class="cls-6" d="M313.52,117.68c-.56.7-1.12,1.37-1.64,2,.32-.51.64-1,1-1.48a1.84,1.84,0,0,1,.54-.46Z"/><path class="cls-7" d="M334.5,62.88a153.55,153.55,0,0,1-4.25,19.65,139.53,139.53,0,0,1-5.45,15.38,110.31,110.31,0,0,1-6.61,13.18,7.75,7.75,0,0,0-4.18-.86,9.44,9.44,0,0,0-3.38.9l-.12.06-.1,0a10.55,10.55,0,0,0-2.73,2.11l-.4.45-.34.46c-.78,1.13-1.58,2.41-2.4,3.72-.36.59-.7,1.21-1,1.82a6,6,0,0,0-.58-.35A78.1,78.1,0,0,0,315,98.2a124.1,124.1,0,0,0,5.94-21.36,127.48,127.48,0,0,0,1.69-22.69,3.33,3.33,0,0,0-.61-2,10.83,10.83,0,0,0-1.08-1.25c-.34,0-.49-.14-.49-.46a1,1,0,0,1,.25-.75,3.9,3.9,0,0,1,1.44-.58,11.55,11.55,0,0,1,2.05.11,9.33,9.33,0,0,1,3.28,1.25,9.55,9.55,0,0,0,1,.78,12.14,12.14,0,0,1,1,.79,10.78,10.78,0,0,1,3.49,4.14c.73,1.59,1.25,2.84,1.59,3.8a6,6,0,0,0,.13,1.21A4.69,4.69,0,0,1,334.5,62.88Z"/><path class="cls-8" d="M434,148.09a17.3,17.3,0,0,1-5.35,10.9A33.33,33.33,0,0,1,417,166a69.58,69.58,0,0,1-15.88,3.63,140.39,140.39,0,0,1-17.95,1,155,155,0,0,1-18.05-1.26,104.12,104.12,0,0,1-14.89-2.89,53.18,53.18,0,0,0,2.4-5.25,50.06,50.06,0,0,0,3.05-13.12l0-.22,0-.24a28.61,28.61,0,0,0-.66-8.05,23.74,23.74,0,0,0-.71-2.41,27.76,27.76,0,0,1,3.48-.76,20.69,20.69,0,0,1,9.22,1.13,2.22,2.22,0,0,1,.73.2l.71.71a.79.79,0,0,1-.71.51l-.73,0a11.21,11.21,0,0,0-3.89,1.47,5.23,5.23,0,0,0-2.42,3.83q-.22,2.7,3.52,4.84a30.4,30.4,0,0,0,9.81,3.23,101.74,101.74,0,0,0,13.35,1.34,67.11,67.11,0,0,0,14.06-.9,45.56,45.56,0,0,0,11.89-3.62,13.62,13.62,0,0,0,7-7,8.9,8.9,0,0,0,.24-7.28,12.93,12.93,0,0,0-5-5.47,31.9,31.9,0,0,0-8.37-3.67,54,54,0,0,0-9.95-1.87,4.37,4.37,0,0,1-2.67-1.56,7.49,7.49,0,0,1-.95-1.83,81.08,81.08,0,0,1-.49-12.35,82,82,0,0,1-4.75,8.76,30.31,30.31,0,0,1-3.74,4.89,14.25,14.25,0,0,1-3.4,2.72,24.66,24.66,0,0,1-7.5-3,24.11,24.11,0,0,1-4.87-4,23.46,23.46,0,0,1-3.65-5.21c-.07-.44-.12-.88-.17-1.32a39.92,39.92,0,0,1-5.16,6.85,35.5,35.5,0,0,1-8.48,6.66,50.31,50.31,0,0,1-13.45-4.39c-3.65-1.9-5.72-4.46-6.19-7.64a39.88,39.88,0,0,1-.12-8.48c.24-3.42.66-7.09,1.22-11s1.29-7.93,2.17-12,1.73-8,2.55-11.54,1.7-7.18,2.66-11.18,2-8,2.91-11.92a116.71,116.71,0,0,1-14.79,1.22c-3.71,0-6.7-.11-8.95-.27A22.72,22.72,0,0,1,313.72,46a6.86,6.86,0,0,1-3.89-3.47,11.67,11.67,0,0,1-1-4.67,15.51,15.51,0,0,1,.49-4.14,11.84,11.84,0,0,0,.49-2.22l.49-.28c.8-.05,1.12.49.95,1.62a9.1,9.1,0,0,0,.25,2,3.26,3.26,0,0,0,1,1.76c2.74,1.91,7.18,2.69,13.21,2.39a185.29,185.29,0,0,0,20-2.25c.66-2.46,1.22-4.72,1.71-6.77s.88-3.71,1.2-5c.48-1.64.56-2.62.24-2.92s-.32-1,0-1.93c.17-.67.66-.92,1.47-.81l1.2-.05a.67.67,0,0,0,.49.22c1.46.42,3.47,1.14,6.06,2.16a26.44,26.44,0,0,1,7,4.11,3.2,3.2,0,0,1,.71.93,3.89,3.89,0,0,1,.25,2.42,6.3,6.3,0,0,0-.37,1.48,8.68,8.68,0,0,1-.59,2.19q9.21-2.25,17-4.08c5.15-1.22,9-2.11,11.64-2.79,9.83-2.57,17.34-2.68,22.43-.37s8.06,5.86,8.85,10.57a10.13,10.13,0,0,1-.37,5.2,12.15,12.15,0,0,1-2.17,3.81,14.88,14.88,0,0,1-2.67,2.46,8.13,8.13,0,0,1-2.08,1.14.84.84,0,0,0-.49.23c-1.29.31-2.1.19-2.42-.3a2.83,2.83,0,0,1-.24-1.21,1.92,1.92,0,0,1,.24-.72c.49-.8.56-1.36.24-1.69a15.51,15.51,0,0,0-8.36-5.35,40.48,40.48,0,0,0-12.13-1.15,108.12,108.12,0,0,0-15.14,1.74c-5.49,1-11.25,2-17.22,3q-1.72,6.88-3.76,14.81c-1.37,5.31-2.79,10.38-4,15.09-1.68,6.45-2.85,12.57-3.75,18s-1.51,10.22-1.83,14.27a98.21,98.21,0,0,0-.95,13.13,22.92,22.92,0,0,0,9.8-8.44,52.44,52.44,0,0,0,5.46-10.87c.37-1.07.71-2.18,1-3.29,0-1.73.08-3.45.2-5.12a114.8,114.8,0,0,1,2.54-17.54,93,93,0,0,1,4-13.11c1.45-3.58,2.58-6.12,3.38-7.6a5.35,5.35,0,0,1,.73-1,7.59,7.59,0,0,1,2.42-1.74,9.81,9.81,0,0,1,5.7-.35,20.37,20.37,0,0,1,5,1.86,13.15,13.15,0,0,1,4.25,2.88,18.2,18.2,0,0,1,2.3,2.9c.32.66.25,1.15-.24,1.47a1,1,0,0,1-1,0,1.67,1.67,0,0,0-1.22.5.81.81,0,0,1-.49.24,52.46,52.46,0,0,0-7.63,17.3,139,139,0,0,0-3.28,18,132.56,132.56,0,0,0-.48,19.9c1.61-.67,3.35-2.73,5.2-6.13A93.49,93.49,0,0,0,391,96.55c1.69-4.52,3.23-9.19,4.6-14s2.61-9,3.52-12.5c1.36-5.23,2.42-9.6,3.38-12.85v-.46a30.21,30.21,0,0,1,1-3.15,1.68,1.68,0,0,1,.25-.73,1.12,1.12,0,0,1,1.22-.73h.25a.65.65,0,0,0,.46.25c1.3.5,3.26,1.29,5.82,2.38a22.52,22.52,0,0,1,6.8,4.41v.24a3.11,3.11,0,0,1,1,1,2.58,2.58,0,0,1,0,2.2v.47H419c-1.95,6.74-3.53,13.15-4.74,19.18s-2.14,11.48-2.79,16.3-1.08,8.89-1.32,12.11-.37,5.4-.37,6.53v.49a.45.45,0,0,0,.37-.12.53.53,0,0,1,.37-.12,22.29,22.29,0,0,0,9.44-7.9,50.36,50.36,0,0,0,5.35-10.12,45.79,45.79,0,0,0,2.67-12.51,15.9,15.9,0,0,1,2.91,2.42,8.56,8.56,0,0,1,1.44,2.39,8.16,8.16,0,0,1,1,2.47q-2,12-6.8,18.36c-3.23,4.25-6.14,7.22-8.73,8.94A48.8,48.8,0,0,1,430,133,20.51,20.51,0,0,1,434,148.09Z"/><path class="cls-9" d="M457.69,32a2.49,2.49,0,0,1-.93.17.83.83,0,0,0-.66.22c-.22.1-.32.12-.54.22a56.64,56.64,0,0,1-4.23,9.19,35.84,35.84,0,0,1-5.16,6.66,10.68,10.68,0,0,1-7,3.37c-.88-.05-1.32.2-1.32.74v2a4,4,0,0,0,1.32,2.59,27.64,27.64,0,0,0,6.77,4.4c2,.83,3.74.81,5.16-.15a22.79,22.79,0,0,0,5-7.14,39.1,39.1,0,0,0,2.37-7.51,37.71,37.71,0,0,0,.81-7.6c0-2.54.1-5,.27-7.53C459,31.77,458.4,31.9,457.69,32Z"/><path class="cls-10" d="M495.28,89.81a30.53,30.53,0,0,0-8-10.3,41.32,41.32,0,0,0-11.15-6.67A39.82,39.82,0,0,0,465.71,70c4.21-2,7.8-3,10.79-3.18a17.55,17.55,0,0,1,7.26,1,11.44,11.44,0,0,1,4.13,2.52c.88,1,1.35,1.56,1.35,1.88a1.85,1.85,0,0,0-.25.95c0,.64.08,1,.25,1a3.25,3.25,0,0,0,2.17.1c.4-.15.59-.19,1-.32a9.58,9.58,0,0,0,2.91-3.69,9.25,9.25,0,0,0,.73-3.52,13.1,13.1,0,0,0-.49-3.72c-2.25-4.23-5-6.68-8.24-7.29a69.45,69.45,0,0,0-18.66,2.62,42,42,0,0,0-15.77,8.34c0,.17-.2.39-.62.68a.73.73,0,0,0-.34,1,31.77,31.77,0,0,1,.59,5.62,32.1,32.1,0,0,1-.59,7.22l-.49.19a.92.92,0,0,0,1,1c4.06.32,8.09.62,12.13.86a37.26,37.26,0,0,1,10.56,2,14.74,14.74,0,0,1,6.9,4.74c1.61,2.08,2,5.16,1,9a64.34,64.34,0,0,1-2.67,7.65,34,34,0,0,1-4.38,7.71,21,21,0,0,1-6.43,5.67,14.83,14.83,0,0,1-8.83,1.66,2.63,2.63,0,0,1-2.32-1.91,10,10,0,0,1-.24-4.37,30.92,30.92,0,0,1,1.46-5.82,55.09,55.09,0,0,1,2.55-6.19c.39-.44.58-.69,1-1.13a6.48,6.48,0,0,1,1-1.59l.24-.46a.84.84,0,0,0,.25-.71,2.07,2.07,0,0,0,.24-1.66c-.17-.52-.32-.76-.49-.79v-.24a20,20,0,0,0-6.53-6.07c-2.91-1.81-5-3.13-6.31-4.06a1,1,0,0,1-.24,0l-.49-.49-1-.07c-.1-.1-.15-.17-.24-.27-.81,0-1.3,0-1.45.37a3.38,3.38,0,0,0-.36,1.68,3.14,3.14,0,0,1-.37,1.67c-1,2.44-1.59,3.66-2.67,6.11a1,1,0,0,1-.24.73,52.27,52.27,0,0,0-2.54,11,22.52,22.52,0,0,0,.73,9.39,13.9,13.9,0,0,0,5.09,6.87c2.52,1.88,6,3.08,10.54,3.62a45,45,0,0,0,15.16-.37,29,29,0,0,0,11-4.79,26.41,26.41,0,0,0,7.41-8.15,48.28,48.28,0,0,0,4.48-10.32C497.55,98.42,497.24,93.84,495.28,89.81Z"/><path class="cls-11" d="M348.29,143.76a18.36,18.36,0,0,0-.36-2.18,17.85,17.85,0,0,0-1.57-4.25,9.35,9.35,0,0,0-2-2.64c-.71-.64-1.32-1.15-1.76-1.5a8.82,8.82,0,0,0-4.65-1.12,3.86,3.86,0,0,0-.75.1,7.57,7.57,0,0,0-4.46,2.39,5.85,5.85,0,0,0-1.68,3.13c-.15,1.08.14,1.64.46,1.81a.83.83,0,0,0,.42.18.5.5,0,0,0,.24-.1l.69-.27a1,1,0,0,0,.54-.44,5.34,5.34,0,0,1,3.79,1.66,8.74,8.74,0,0,1,1.76,3.13c.19.17.41,1.49.68,3.92s-.24,6-1.49,10.73c-.2.56-.37,1.1-.54,1.59s-.37,1-.56,1.44a21.67,21.67,0,0,1-2.76,5,23.29,23.29,0,0,1-3,3.35,10.74,10.74,0,0,1-2.76,1.88,5.08,5.08,0,0,1-1.71.44,1.7,1.7,0,0,1-.39,0c-.69,0-1.15-1-1.4-2.81a30,30,0,0,1,.2-6.7,48.91,48.91,0,0,1,.93-5.45A26,26,0,0,1,328,151.9l.15-.14a14.41,14.41,0,0,1,1.56-2.2,17.33,17.33,0,0,1,2.23-2.23,2.81,2.81,0,0,0,.8-1.27v-.54a6.32,6.32,0,0,0-1.68-2.27,6.5,6.5,0,0,0-4.26-1.3,4.58,4.58,0,0,0-1.49.39,3.71,3.71,0,0,0-.54.27,5.89,5.89,0,0,1-.41.44,1.49,1.49,0,0,1-.25.29,2.28,2.28,0,0,1-.44.32c-.34.47-.81,1.15-1.39,2.11a33.79,33.79,0,0,0-2,3.76,53.42,53.42,0,0,0-2.18,8.27,27.72,27.72,0,0,0-.51,5.4v0a30.69,30.69,0,0,1-2.86,5.74,13.21,13.21,0,0,1-5.55,5c.17-2.86.44-6.06.83-9.49.32-2.91.9-6.31,1.56-10.14a114.84,114.84,0,0,1,2.89-12.21v-.27a2.47,2.47,0,0,0,.15-.78.81.81,0,0,0-.15-.51,1.11,1.11,0,0,0-.54-.57,11.25,11.25,0,0,0-3.72-2.1,17.84,17.84,0,0,0-3.3-1,.94.94,0,0,1-.29-.12l-.66,0c-.47,0-.73.2-.81.44a2.86,2.86,0,0,0-.14.51.62.62,0,0,0,.14.52,1.77,1.77,0,0,1,0,1.42c-.41,1.63-1,3.91-1.64,6.72s-1.22,5.85-1.81,8.95c-.53,2.86-1,5.65-1.29,8.27v0a29.49,29.49,0,0,1-3,5.68c-1.32,2.05-5.28,5-5.52,4.89a15.16,15.16,0,0,1-.13-3.91c.1-1.35.25-3.09.47-5.09a59.87,59.87,0,0,1,1.3-7.19c.17-.66.34-1.3.46-1.88s.29-1.23.46-1.84c.2-1,.42-2,.69-2.93a27.89,27.89,0,0,0,.68-2.89c1.15-4.4,2.25-8.41,3.23-12.06.83-3,1.47-5.26,1.91-6.72a7,7,0,0,0,.24-.83,2,2,0,0,0-.12-1.45.63.63,0,0,0-.07-.12,1.76,1.76,0,0,0-.34-.27.88.88,0,0,0-.2-.12,18.52,18.52,0,0,0-3.72-2c-1.44-.51-2.88-.78-3.37-1.07a.51.51,0,0,0-.27-.12,1.28,1.28,0,0,1-.27,0,1.26,1.26,0,0,0-.42,0,.89.89,0,0,0-.53.19.74.74,0,0,0-.27.42c-.15.46-.17.81,0,1s.14.75-.12,1.68c-.47,1.59-1,3.55-1.62,5.92s-1.78,7.93-2.05,8-2.28-1.22-3.35-1.49a22.09,22.09,0,0,0-3.11-.54,14.69,14.69,0,0,0-2.2,0c-.34,0-.71.08-1.05.13a8,8,0,0,0-4.82,2.64,22.62,22.62,0,0,0-3.69,5.62,47.12,47.12,0,0,0-2.79,7.41,66.08,66.08,0,0,0-1.69,7.71c-.22,1.49-.34,2.88-.44,4.2a30.86,30.86,0,0,1-2.86,5.68c-1.3,2.08-5.48,4.91-5.48,4.91-.29-.19.44-5.87.81-9.12.34-2.81.88-6.11,1.54-9.86s2.37-8.29,2.91-12.13a1,1,0,0,1,.15-.29,1.26,1.26,0,0,0-.08-1.25,6,6,0,0,0-.46-.61.31.31,0,0,0-.15,0,10.93,10.93,0,0,0-3.69-2.06c-1.42-.46-2.52-.78-3.33-1a1.2,1.2,0,0,0-.95.46,4.24,4.24,0,0,0-.27.47c-.07.29-.29.71-.34,1a1.93,1.93,0,0,1-.2.75v.15l-.59,2.5c-.24.9-.48,1.93-.75,3-.42,1.71-1.1,4.06-1.89,7s-1.73,5.79-2.71,8.66a62.28,62.28,0,0,1-3.18,7.77c-1.13,2.3-2.18,3.67-3.18,4.11a73.06,73.06,0,0,1,.27-11.1,82.31,82.31,0,0,1,1.83-10.13,31.78,31.78,0,0,1,4.26-10,1,1,0,0,0,.15-.13.8.8,0,0,1,.68-.34c.07,0,.15,0,.24,0a1.18,1.18,0,0,0,.3-.1.55.55,0,0,0,.24-.83c-.34-.42-.78-.93-1.32-1.52a7.29,7.29,0,0,0-2.32-1.41,13.92,13.92,0,0,0-2.77-.84,5.87,5.87,0,0,0-1.32-.09,5.35,5.35,0,0,0-1.85.49,4.43,4.43,0,0,0-1.35,1,2.31,2.31,0,0,0-.42.58q-.66,1.26-1.88,4.33a55,55,0,0,0-2.25,7.41,66.66,66.66,0,0,0-1.39,9.86c-.08,1.05-.13,2.13-.13,3.28-.12.49-.26,1-.41,1.41a28,28,0,0,1-3.06,6.19,12.74,12.74,0,0,1-2.05,2.55,1.88,1.88,0,0,1-3.25-1.4c.09-1.17.26-2.4.39-3.59.24-2.18.51-4.92,1-8s1.2-6.43,2.1-10.1c.71-2.66,1.47-5.52,2.23-8.48s1.25-7.54,2.1-8.34c1.15-1.13,6.53-1.47,9.59-2.23s5.92-1.22,8.44-1.56c.36-.05.73-.1,1.07-.13a23,23,0,0,1,5.7.15,9.35,9.35,0,0,1,4.65,2.52c.17.17.12.49-.13,1a1.17,1.17,0,0,0-.14.42,1.4,1.4,0,0,0,.14.66.66.66,0,0,0,.62.2,2,2,0,0,0,.73-.18c.1-.05.17-.17.27-.17a5.47,5.47,0,0,0,1.15-.76,9.26,9.26,0,0,0,1.47-1.56,8.7,8.7,0,0,0,1.22-2.25,5.84,5.84,0,0,0,.22-2.94c-.42-2.54-2.13-4.32-4.94-5.3a11.92,11.92,0,0,0-4.75-.44,27.38,27.38,0,0,0-3.13.51,45.75,45.75,0,0,0-4.62,1.3c-1.44.49-3.62,1.2-6.48,2-2.08.64-4.38,1.3-6.77,2-.88.27-2.69.78-2.69.78s.29-.91.34-1.25c0-.14.05-.29.07-.41s.1-.3.12-.39a1.82,1.82,0,0,0-.12-1.35,2,2,0,0,0-.41-.51,15.42,15.42,0,0,0-3.92-2.11c-1.24-.44-2.32-.78-3.08-1a2.42,2.42,0,0,1-.32-.1.35.35,0,0,1-.24-.1,5.34,5.34,0,0,1-.69,0h-.27a.57.57,0,0,0-.53.47c-.17.59-.17.93,0,1.1s.09.71-.15,1.64c-.17.68-.42,1.68-.69,2.81s-.46,3.35-.92,3.79c-1.3,1.2-7.15,1.17-10.3,1.39l-.86.08a18.53,18.53,0,0,1-4.55-.2c-.41-.1-1.17-.34-1.17-.34s1.3-1.22,1.74-1.93a2,2,0,0,0,.27-1v-.66a22.78,22.78,0,0,0-1.35-6.95,13.2,13.2,0,0,0-2.52-4.13,6.76,6.76,0,0,0-3.1-2,9.09,9.09,0,0,0-3.31-.4,15.84,15.84,0,0,0-3.91.66c-.51.2-1.05.44-1.49.64a19.69,19.69,0,0,0-3.79,2.3c-.25.17-.54.39-.83.63l0,0a28.69,28.69,0,0,0-2.79,2.66,29.73,29.73,0,0,0-2.44,3c-.49.68-1,1.42-1.47,2.2a31.87,31.87,0,0,0-1.83,3.42c-.35.74-.64,1.47-.93,2.25-.22.57-.39,1.25-.61,1.81a18.06,18.06,0,0,0-.54,2.13,8.33,8.33,0,0,0,0,3,11.88,11.88,0,0,0,1,3,6.74,6.74,0,0,0,2.64,2.83,8.51,8.51,0,0,0,1.74.71c.73.25,2,.25,2.86.52a1.72,1.72,0,0,0,.66.09,2.72,2.72,0,0,1,.81.08,46.09,46.09,0,0,1,6.58.88,26.42,26.42,0,0,1,6.4,2.17,14.27,14.27,0,0,1,5.41,4.58c1.34,1.93,1.88,4.5,1.61,7.77a15,15,0,0,1-3.45,9.59,21.55,21.55,0,0,1-7.63,5.53,33.07,33.07,0,0,1-9.58,2.44c-1.42.13-2.79.25-4.09.32-1.83.1-3.52.17-5.11.15a29.12,29.12,0,0,1-9.93-1.59,16.23,16.23,0,0,1-6.09-3.69,9.74,9.74,0,0,1-2.57-4.5,5.52,5.52,0,0,1,.49-3.94,8.23,8.23,0,0,1,3.45-3.38,17.62,17.62,0,0,1,3.57-1.39,1.06,1.06,0,0,0,.42-.15c.24-.29.39-.46.39-.56a4.62,4.62,0,0,0-.15-1,.64.64,0,0,0-.66-.56h-1c-1,0-2.2.2-3.64.42a8.07,8.07,0,0,0-4.82,2.3,29.14,29.14,0,0,0-2.28,3.13,39.43,39.43,0,0,0-2.25,4c-.68,1.42-1.29,2.89-1.88,4.33a26.59,26.59,0,0,0-1.27,4,4,4,0,0,0,.85,3.43,14.42,14.42,0,0,0,3.38,3.05,28.66,28.66,0,0,0,4.67,2.52c1.71.74,3.28,1.35,4.72,1.81a40.27,40.27,0,0,0,14.36,1.74c.85-.05,1.71-.12,2.54-.22a54.64,54.64,0,0,0,16.48-4.48,30.23,30.23,0,0,0,12.43-9.93,25,25,0,0,0,4.33-14.77,21.66,21.66,0,0,0-1.89-9,23,23,0,0,0-5.35-7.46,24.6,24.6,0,0,0-8.42-5c-3.32-1.22-11.27-1.54-11.37-1.68s.37-1.1.54-1.81a44.26,44.26,0,0,1,2-5.53c.44-1,.86-2,1.2-2.81.17-.37.34-.76.46-1.08.4-.88.84-1.86,1.37-2.79a13.86,13.86,0,0,1,2.91-3.54,3.27,3.27,0,0,1,1.86-.88,2.88,2.88,0,0,1,.91.14l.27,0c1.78.76,2.71,2.42,2.76,4.91a31,31,0,0,1-.56,6.41c-.1.49-.2,1-.32,1.52-.17.81-.42,1.27-.66,1.34a.78.78,0,0,0-.56.47.88.88,0,0,0,0,.49.84.84,0,0,0,.17.27l.22.19a.35.35,0,0,0,.15.07,1.13,1.13,0,0,0,.42.18c.49.14,1.88,0,2.54.05a11,11,0,0,1,1.81.31,17.57,17.57,0,0,1,2.15.79,10.35,10.35,0,0,0,3.25.68c1.28.12,2.92.12,5,.12.66,0,1.42,0,2.25-.1,1.69-.12,5.87-.83,6-.73.26.29-1.08,4.43-1.62,6.65s-1.05,4.36-1.49,6.29-.9,4.18-1.42,6.48-.88,4.52-1.2,6.7-.53,4.23-.68,6.12a21,21,0,0,0,.07,4.72,5.57,5.57,0,0,0,3.43,4.2,17.79,17.79,0,0,0,2.12.91,9.48,9.48,0,0,0,10.08-2.5l.05-.05a24,24,0,0,0,2.76-3.76c0,.14,0,.39.08.56a7.14,7.14,0,0,0,1.88,2.81,12.17,12.17,0,0,0,2.71,2.08c1.08.61,2.91,1.52,4.19,1.42.51-.05,1.29-.83,2-1.66a22.72,22.72,0,0,0,2.15-3c.8-1.29,2.71-5.23,2.71-5.23s0,1.42.12,1.76a5.78,5.78,0,0,0,3.45,4.11c2,1.05,5.55,2.64,7.51,2.27,1.25-.22,3.23-2.27,4.75-3.91a21.75,21.75,0,0,0,1.66-2.13c0,.15.05.22.07.37a5.55,5.55,0,0,0,3.23,3.38,14.58,14.58,0,0,0,4.33.85c.54,0,1.08,0,1.64-.05a10.53,10.53,0,0,0,3.76-.71,4.6,4.6,0,0,0,.84-1.44c.36-.81.75-1.81,1.19-2.93s.93-2.52,1.42-4,1.57-4.43,1.57-4.43-.15,2-.15,3a14.08,14.08,0,0,0,.27,2.67,6,6,0,0,0,3.47,4.13c2,1,5.63,2.67,7.63,2.3,1.23-.22,3.21-2.25,4.72-3.89.57-.61,1.67-2.08,1.67-2.08s1.61,2.5,3.35,3.38a27.29,27.29,0,0,0,7.55,2.37,29.35,29.35,0,0,0,4.75-4.4c.68-.81,2-2.84,2-2.84a6.25,6.25,0,0,0,.27,1.08,4.72,4.72,0,0,1,.49.9,1.94,1.94,0,0,0,.59.78,27.59,27.59,0,0,0,3.25,2.2,16,16,0,0,0,6.09,1.64c.54,0,.81,0,1.35-.09a5.42,5.42,0,0,0,2.83-1,31.61,31.61,0,0,0,4-3.21,31,31,0,0,0,4.67-5.52,37,37,0,0,0,3-5.48c.4-.86.79-1.74,1.15-2.64a36.6,36.6,0,0,0,2.57-11.13A19.81,19.81,0,0,0,348.29,143.76Zm-61.53,1.66a25.29,25.29,0,0,0-.66,2.91v.27a103.58,103.58,0,0,1-3.94,11.25c-1.34,3.16-2.54,5.82-3.64,8a56.7,56.7,0,0,1-3.77,6.41,33.51,33.51,0,0,1-.29-7.41,45.86,45.86,0,0,1,1.3-8.17A48.84,48.84,0,0,1,278.4,151a21.47,21.47,0,0,1,3.64-5.82,7.62,7.62,0,0,1,2.69-1.91,9.91,9.91,0,0,1,2.72-.68C287.25,143.54,287,144.52,286.76,145.42Z"/><path class="cls-12" d="M319.34,124.49V125a2.09,2.09,0,0,1-.27,1.09,21,21,0,0,0-2.42,5.42.65.65,0,0,1-.15.43,1.58,1.58,0,0,1-.19.43,7.56,7.56,0,0,1-.42.69,1.36,1.36,0,0,1-1.1.64c-.1,0-.19,0-.32,0a8.38,8.38,0,0,1-4-1.34,6.68,6.68,0,0,1-1.84-2,5.88,5.88,0,0,1-.39-2.12,5.6,5.6,0,0,1,.25-1.75s0,0,0,0a5.22,5.22,0,0,0,.2-.9,1.52,1.52,0,0,1,.34-.76,22.58,22.58,0,0,1,1.69-3.37c.34-.56.68-1.13,1.05-1.64a.12.12,0,0,1,.07-.11c.52-.62,1.08-1.29,1.64-2a1.56,1.56,0,0,1,.49-.11.7.7,0,0,1,.46.09,33.28,33.28,0,0,1,3.11,3A6.68,6.68,0,0,1,319.34,124.49Z"/><path class="cls-6" d="M313.52,117.68c-.56.7-1.12,1.37-1.64,2,.32-.51.64-1,1-1.48a1.84,1.84,0,0,1,.54-.46Z"/></svg>